<svg xmlns="http://www.w3.org/2000/svg" viewBox="0 0 512 512"><path d="M398 18a8 8 0 00-6-2H152a40 40 0 00-40 40v97l-37 33a8 8 0 000 12l29 26v114a64 64 0 01-24-50 8 8 0 00-8-8H24a8 8 0 00-8 8 128 128 0 0096 124v44a40 40 0 0040 40h304a40 40 0 0040-40V120a8 8 0 00-2-6zm2 25l69 69h-45a24 24 0 01-24-24zM32 296h32a80 80 0 1080-88 8 8 0 00-8 8v14l-44-38 44-38v14a8 8 0 008 8A112 112 0 1132 296zm88 51V238l19 16a8 8 0 0013-6v-23a64 64 0 11-32 122zm360 109a24 24 0 01-24 24H152a24 24 0 01-24-24v-41a128 128 0 00144-127c0-68-53-124-120-128v-24a8 8 0 00-13-6l-11 9V56a24 24 0 0124-24h232v56a40 40 0 0040 40h56z"/><path d="M288 168a8 8 0 00-8-8h-16a8 8 0 000 16h16a8 8 0 008-8zM296 224h32a8 8 0 000-16h-32a8 8 0 000 16zM440 256H312a8 8 0 000 16h128a8 8 0 000-16zM360 320a8 8 0 000-16h-48a8 8 0 000 16zM440 208h-80a8 8 0 000 16h80a8 8 0 000-16zM440 304h-48a8 8 0 000 16h48a8 8 0 000-16zM376 400h-64a8 8 0 000 16h64a8 8 0 000-16zM280 400h-16a8 8 0 000 16h16a8 8 0 000-16zM248 112h-64a8 8 0 000 16h64a8 8 0 000-16zM352 360a8 8 0 00-8-8h-48a8 8 0 000 16h48a8 8 0 008-8zM440 352h-64a8 8 0 000 16h64a8 8 0 000-16zM440 400h-32a8 8 0 000 16h32a8 8 0 000-16zM304 168a8 8 0 008 8h128a8 8 0 000-16H312a8 8 0 00-8 8z"/></svg>